<svg xmlns="http://www.w3.org/2000/svg" width="25" height="24" viewBox="0 0 25 24">
<path fill="#0FB5D9"  d="M11.4894 21.967C10.8638 21.8765 10.2729 21.6238 9.77536 21.234C9.57689 21.1049 9.41061 20.932 9.28928 20.7287C9.16794 20.5254 9.09477 20.297 9.07536 20.061C9.07536 19.561 9.53736 19.327 9.96436 19.228C11.311 19.1227 12.6638 19.1227 14.0104 19.228C14.4374 19.328 14.8994 19.557 14.8994 20.061C14.8805 20.2967 14.8081 20.525 14.6877 20.7284C14.5672 20.9319 14.4019 21.1051 14.2044 21.235C13.7066 21.6237 13.1163 21.8759 12.4914 21.967C12.3239 21.9886 12.1552 21.9997 11.9864 22C11.8191 22.0004 11.6521 21.9894 11.4864 21.967H11.4894ZM7.27036 17.747C6.16319 17.6474 5.13118 17.1445 4.37036 16.334C3.80532 15.6713 3.49852 14.8269 3.50636 13.956C3.45504 13.122 3.71558 12.2987 4.23736 11.646C4.60077 11.2702 4.88275 10.8236 5.06565 10.3339C5.24856 9.84415 5.32846 9.32199 5.30036 8.8V8.37C5.23206 6.96902 5.68964 5.59306 6.58336 4.512C7.24437 3.72852 8.06777 3.09808 8.99656 2.66434C9.92534 2.23059 10.9373 2.00392 11.9624 2H12.0524C13.1016 2.00242 14.1369 2.23929 15.0828 2.69328C16.0287 3.14728 16.8612 3.80693 17.5194 4.624C18.3636 5.68411 18.7905 7.01666 18.7194 8.37V8.8C18.696 9.32187 18.7779 9.8431 18.9604 10.3326C19.1429 10.8221 19.4221 11.2698 19.7814 11.649C20.3006 12.3016 20.559 13.1237 20.5064 13.956C20.5148 14.8271 20.2083 15.6719 19.6434 16.335C18.8823 17.1452 17.8504 17.648 16.7434 17.748C15.1724 17.881 13.5994 17.995 12.0064 17.995C10.4243 18.0023 8.84305 17.9195 7.27036 17.747Z" />
</svg>