<svg xmlns="http://www.w3.org/2000/svg" width="270" height="218" viewBox="0 0 270 218" fill="none">
<path d="M227.454 0.999997L286 109M227.454 0.999997L166.34 109M227.454 0.999997L166.227 0.999995M227.454 217L286 109M227.454 217L166.34 109M227.454 217L166.227 217M39.4124 217L-17 109M39.4124 217L98.9588 109M39.4124 217L105 217M39.4124 0.999989L-17 109M39.4124 0.999989L98.9588 109M39.4124 0.999989L105 0.999992M286 109L226.67 109M-17 109L40.9794 109M166.34 109L98.9588 109M166.34 109L226.67 109M98.9588 109L40.9794 109M98.9588 109L166.227 0.999995M98.9588 109L166.227 217M40.9794 109L105 0.999992M40.9794 109L105 217M105 0.999992L166.227 0.999995M105 217L166.227 217M166.227 0.999995L226.67 109M226.67 109L166.227 217" stroke="white" stroke-width="1.5"/>
</svg>