<svg xmlns="http://www.w3.org/2000/svg" width="28" height="30" viewBox="0 0 28 30" fill="none">
<path fill-rule="evenodd" clip-rule="evenodd" d="M11.067 6.00571C10.9846 5.52114 10.9226 5.04206 10.8825 4.56294C10.8221 3.84425 10.8595 3.12007 10.8381 2.40138C10.8287 2.09648 10.792 1.30158 10.8068 1.18724C10.9413 0.190879 11.7521 0.0384117 11.9893 0.0111887C12.1041 -0.00514512 13.2822 -0.135757 13.5364 1.16006C13.8482 2.74444 13.9481 4.33969 13.8378 5.90229C14.0953 7.23077 14.5356 8.55379 15.117 9.7516C17.4304 14.5156 21.8389 14.9784 26.6151 14.9349C27.3497 14.924 27.9597 15.4957 27.9981 16.2198C28.0365 16.9494 27.4897 17.5809 26.7585 17.6463C24.0887 17.9022 19.3519 20.0256 17.7142 22.2361C17.3717 22.6989 17.1724 23.8151 16.9089 24.9094C16.541 26.4285 16.1035 27.9312 15.6132 28.5627C15.5397 28.6607 14.6454 29.6626 14.3785 29.8096C13.7373 30.158 13.224 29.9565 12.9325 29.7714C12.641 29.5863 12.311 29.2215 12.1793 28.6172C12.0415 27.9856 12.1579 26.6898 12.1364 26.4121C12.0585 25.4048 11.8554 23.4285 11.4409 21.7297C11.2174 20.815 10.9792 19.9711 10.585 19.5519C9.12575 18.0002 6.79251 18.2289 4.82765 18.4848C4.60201 18.512 4.37638 18.5447 4.15129 18.5719C3.3514 18.806 2.50208 18.9802 1.60447 19.0837C0.248993 19.2416 0.0261155 18.0056 0.0140376 17.924C-0.0112163 17.7443 -0.105105 16.8187 0.916579 16.4485C1.02803 16.4104 1.85043 16.2307 2.1672 16.1599C2.6086 16.0619 3.05492 15.9857 3.5029 15.9149C8.1304 14.4884 10.6437 10.4812 11.067 6.00571ZM12.6553 10.9549C14.4022 14.5375 17.0533 16.2688 20.1957 17.0528H20.1952C18.2331 18.071 16.4483 19.345 15.5023 20.6245C15.1433 21.1091 14.8139 22.0837 14.5169 23.178C14.356 22.1599 14.1387 21.0764 13.8515 20.1508C13.5249 19.0945 13.0851 18.218 12.5943 17.6953C11.6467 16.6881 10.4576 16.1273 9.17898 15.8496C10.7096 14.5048 11.8702 12.8278 12.6553 10.9549Z" fill="#373739"/>
</svg>