<svg xmlns="http://www.w3.org/2000/svg" width="254" height="254" viewBox="0 0 254 254" fill="none">
<path fill-rule="evenodd" clip-rule="evenodd" d="M127.75 0V121.303L159.146 4.13303L160.595 4.52126L129.199 121.691L189.85 16.6396L191.15 17.3896L130.498 122.442L216.272 36.6669L217.333 37.7276L131.558 123.502L236.61 62.8505L237.36 64.1495L132.309 124.801L249.479 93.4054L249.867 94.8543L132.697 126.25H254V127.75H132.697L249.866 159.145L249.478 160.594L132.308 129.199L237.36 189.85L236.61 191.15L131.559 130.498L217.333 216.272L216.272 217.333L130.498 131.559L191.15 236.61L189.85 237.36L129.199 132.308L160.594 249.478L159.145 249.866L127.75 132.697V254H126.25V132.697L94.8545 249.866L93.4056 249.478L124.801 132.308L64.1495 237.36L62.8505 236.61L123.502 131.559L37.7279 217.333L36.6673 216.272L122.441 130.498L17.3899 191.15L16.6399 189.85L121.692 129.199L4.52181 160.594L4.13358 159.145L121.303 127.75H0V126.25H121.303L4.13303 94.8543L4.52126 93.4054L121.691 124.801L16.6396 64.1495L17.3896 62.8505L122.442 123.502L36.6669 37.7276L37.7276 36.6669L123.502 122.442L62.8505 17.3896L64.1495 16.6396L124.801 121.691L93.4054 4.52126L94.8543 4.13303L126.25 121.303V0H127.75Z" fill="white"/>
</svg>