<svg xmlns="http://www.w3.org/2000/svg" width="36" height="39" viewBox="0 0 36 39" fill="none">
<path fill-rule="evenodd" clip-rule="evenodd" d="M12.0451 36.3943C8.60762 35.4405 5.0087 34.9593 1.51751 34.5185C0.765559 34.4261 0.0674254 34.9418 0.0137148 35.6683C-0.0937064 36.3954 0.443714 37.0603 1.14195 37.1527C4.52572 37.5771 8.0166 38.0312 11.2929 38.9494C11.9912 39.1486 12.7434 38.7386 12.9583 38.0333C13.1731 37.3285 12.7433 36.594 12.0451 36.3943Z" fill="#22201F"/>
<path fill-rule="evenodd" clip-rule="evenodd" d="M22.4646 22.8717C16.9324 17.2894 10.702 12.4256 5.27725 6.69354C4.79385 6.1582 3.93448 6.12952 3.39737 6.62927C2.86027 7.12956 2.80677 7.97081 3.34387 8.50616C8.76865 14.2547 14.9991 19.1344 20.5313 24.7332C21.0684 25.2558 21.9275 25.2632 22.4646 24.7491C22.948 24.2355 23.0017 23.3943 22.4646 22.8717Z" fill="#22201F"/>
<path fill-rule="evenodd" clip-rule="evenodd" d="M32.8315 1.39983C32.9927 4.59489 33.1535 7.78994 33.3146 10.9855C33.3146 11.7174 33.9594 12.2825 34.7114 12.2469C35.4633 12.2108 36.0001 11.5878 36.0001 10.8554C35.839 7.65505 35.6782 4.45521 35.5171 1.25538C35.4633 0.523529 34.8187 -0.0378368 34.0668 0.00199523C33.3685 0.0418272 32.7778 0.668519 32.8315 1.39983Z" fill="#22201F"/>
</svg>